<?xml version="1.0" encoding="iso-8859-1"?>
<!-- Generator: Adobe Illustrator 19.0.0, SVG Export Plug-In . SVG Version: 6.00 Build 0)  -->
<svg version="1.1" id="Layer_1" xmlns="http://www.w3.org/2000/svg" xmlns:xlink="http://www.w3.org/1999/xlink" x="0px" y="0px"
	 viewBox="0 0 512 512" style="enable-background:new 0 0 512 512;" xml:space="preserve">
<rect x="105.354" y="92.554" style="fill:#3C6F99;" width="298.338" height="414.523"/>
<path style="fill:#6598CB;" d="M403.692,150.587v356.49H164.244V252.991c0-56.556,45.848-102.405,102.404-102.405L403.692,150.587
	L403.692,150.587z"/>
<path style="fill:#579E2E;" d="M325.69,339.481v47.084l-139.044,1.77V339.48c0-29.477,18.347-54.673,44.243-64.786
	c7.838-3.063,16.361-4.74,25.276-4.74h0.007c8.861,0,17.331,1.656,25.121,4.68C307.268,284.706,325.69,309.942,325.69,339.481z"/>
<path style="fill:#75BF4D;" d="M325.69,360.286v26.279l-139.044,1.77v-28.05c0-29.477,18.347-54.673,44.243-64.786
	c7.838-3.063,16.361-4.74,25.276-4.74h0.007c8.861,0,17.331,1.656,25.121,4.68C307.268,305.511,325.69,330.747,325.69,360.286z"/>
<path style="fill:#EAA96E;" d="M281.292,274.634l-8.672,10.018l-16.449,19.007l-16.57-18.98l-8.713-9.985
	c7.838-3.063,16.361-4.74,25.276-4.74h0.007C265.031,269.954,273.502,271.611,281.292,274.634z"/>
<g>
	<path style="fill:#FBCB99;" d="M272.619,284.652l-16.449,19.007l-16.57-18.98c5.306-1.3,10.853-1.986,16.563-1.986h0.007
		C261.84,282.694,267.348,283.373,272.619,284.652z"/>
	<path style="fill:#FBCB99;" d="M301.377,224.997c0,0.929-0.027,1.852-0.088,2.768c-0.107,1.777-0.316,3.521-0.626,5.238
		c-0.68,3.81-1.838,7.46-3.414,10.874c-7.143,15.54-22.852,26.334-41.078,26.334c-18.631,0-34.628-11.264-41.543-27.357
		c-1.347-3.124-2.349-6.431-2.956-9.871c-0.303-1.697-0.512-3.421-0.619-5.178c-0.067-0.929-0.095-1.865-0.095-2.808
		c0-24.966,20.24-45.213,45.213-45.213C281.137,179.785,301.377,200.032,301.377,224.997z"/>
</g>
<path style="fill:#EAA96E;" d="M300.663,233.003c-0.68,3.81-1.838,7.46-3.414,10.874c-37.786,0.202-54.316-16.591-54.316-16.591
	c-8.585,8.362-19.668,13.022-28.306,15.567c-1.347-3.124-2.349-6.431-2.956-9.871c3.791-21.129,22.273-37.166,44.499-37.166
	C278.396,195.816,296.878,211.869,300.663,233.003z"/>
<path style="fill:#694B4B;" d="M301.377,224.997c0,0.929-0.027,1.852-0.088,2.768c-40.648,1.474-58.355-16.51-58.355-16.51
	c-2.545,2.478-5.306,4.633-8.16,6.497c-8.167,5.352-17.082,8.383-23.72,10.053c-0.067-0.929-0.095-1.865-0.095-2.808
	c0-24.966,20.24-45.213,45.213-45.213c16.119,0,30.272,8.443,38.271,21.149C298.839,207.903,301.377,216.151,301.377,224.997z"/>
<path style="fill:#563939;" d="M301.377,224.997c0,0.929-0.027,1.852-0.088,2.768c-40.648,1.474-58.355-16.51-58.355-16.51
	c-2.545,2.478-5.306,4.633-8.16,6.497c7.911-13.143,22.313-21.936,38.769-21.936c7.541,0,14.651,1.845,20.899,5.117
	C298.839,207.903,301.377,216.151,301.377,224.997z"/>
<polygon style="fill:#AEB9CC;" points="303.586,6.174 300.14,40.025 288.374,155.441 224.965,155.441 206.494,6.174 "/>
<path style="fill:#C8D0E2;" d="M300.14,40.025l-11.766,115.417h-33.743l-9.138-73.823c-2.735-22.095,14.498-41.594,36.763-41.594
	C282.256,40.025,300.14,40.025,300.14,40.025z"/>
<rect x="105.354" y="387.899" style="fill:#AEB9CC;" width="298.338" height="119.178"/>
<path style="fill:#C8D0E2;" d="M403.692,423.365v83.712H141.41l0,0c0-46.233,37.479-83.712,83.712-83.712H403.692z"/>
<path d="M305.17,83.545L315.218,0H196.782l10.049,83.545H99.104V512h313.793V83.545H305.17z M298.566,14.769l-15.745,130.903
	h-53.642L213.434,14.769H298.566z M208.607,98.314l7.472,62.128h79.84l7.473-62.128h94.735v284.25h-63.305v-40.89
	c0-33.053-20.459-61.4-49.371-73.092c13.961-9.468,23.152-25.463,23.152-43.565c0-29.006-23.598-52.604-52.604-52.604
	c-29.007,0-52.604,23.598-52.604,52.604c0,18.102,9.192,34.097,23.152,43.565c-28.911,11.692-49.371,40.039-49.371,73.092v40.89
	h-63.305V98.314H208.607z M288.39,343.942v38.622h-64.779v-38.622h-14.769v38.622h-16.894v-40.89
	c0-25.198,14.631-47.035,35.839-57.486l20.829,23.877v30.836h14.769v-30.836l20.829-23.877c21.209,10.452,35.84,32.288,35.84,57.486
	v40.89h-16.894v-38.622H288.39z M219.279,234.119c10.018-3.711,17.508-8.515,22.974-13.111c8.048,5.355,24.361,13.631,49.879,15.245
	c-4.797,15.392-19.18,26.598-36.131,26.598C238.276,262.851,223.365,250.598,219.279,234.119z M241.743,199.472
	c-0.063,0.129-5.86,11.166-22.983,18.908c3.148-17.707,18.643-31.199,37.24-31.199c19.693,0,35.913,15.126,37.669,34.369
	c-20.554-1.211-34.068-7.296-41.155-11.547c1.632-2.316,2.408-3.863,2.517-4.086L241.743,199.472z M256,294.062l-13.152-15.077
	c4.247-0.89,8.645-1.364,13.152-1.364c4.508,0,8.906,0.474,13.153,1.364L256,294.062z M113.873,497.231v-99.898h63.305h157.644
	h63.305v99.898H113.873z"/>
<polygon points="372.759,203.915 387.528,203.915 387.528,108.913 321.252,108.913 321.252,123.682 372.759,123.682 "/>
<rect x="372.756" y="223.045" width="14.769" height="16.582"/>
<rect x="124.475" y="253.026" width="14.769" height="83.84"/>
<rect x="124.475" y="221.775" width="14.769" height="14.031"/>
<polygon points="269.963,40.138 267.25,62.69 281.914,64.454 286.615,25.369 249.908,25.369 249.908,40.138 "/>
<rect x="265.539" y="78.179" transform="matrix(-0.1194 0.9928 -0.9928 -0.1194 389.3529 -174.2062)" width="12.786" height="14.769"/>
<rect x="141.381" y="423.404" width="229.248" height="14.769"/>
<rect x="141.381" y="459.569" width="229.248" height="14.769"/>
<g>
</g>
<g>
</g>
<g>
</g>
<g>
</g>
<g>
</g>
<g>
</g>
<g>
</g>
<g>
</g>
<g>
</g>
<g>
</g>
<g>
</g>
<g>
</g>
<g>
</g>
<g>
</g>
<g>
</g>
</svg>
